<svg id="SvgjsSvg1006" width="1091" height="963.125" xmlns="http://www.w3.org/2000/svg" version="1.1" xmlns:xlink="http://www.w3.org/1999/xlink" xmlns:svgjs="http://svgjs.com/svgjs"><defs id="SvgjsDefs1007"><marker id="SvgjsMarker1102" markerWidth="16" markerHeight="12" refX="16" refY="6" viewBox="0 0 16 12" orient="auto" markerUnits="userSpaceOnUse"><path id="SvgjsPath1103" d="M0,2 L14,6 L0,11 L0,2" fill="#323232" stroke="#323232" stroke-width="2"></path></marker><marker id="SvgjsMarker1106" markerWidth="16" markerHeight="12" refX="16" refY="6" viewBox="0 0 16 12" orient="auto" markerUnits="userSpaceOnUse"><path id="SvgjsPath1107" d="M0,2 L14,6 L0,11 L0,2" fill="#323232" stroke="#323232" stroke-width="2"></path></marker><marker id="SvgjsMarker1114" markerWidth="16" markerHeight="12" refX="16" refY="6" viewBox="0 0 16 12" orient="auto" markerUnits="userSpaceOnUse"><path id="SvgjsPath1115" d="M0,2 L14,6 L0,11 L0,2" fill="#323232" stroke="#323232" stroke-width="2"></path></marker><marker id="SvgjsMarker1134" markerWidth="16" markerHeight="12" refX="16" refY="6" viewBox="0 0 16 12" orient="auto" markerUnits="userSpaceOnUse"><path id="SvgjsPath1135" d="M0,2 L14,6 L0,11 L0,2" fill="#323232" stroke="#323232" stroke-width="2"></path></marker><marker id="SvgjsMarker1138" markerWidth="16" markerHeight="12" refX="16" refY="6" viewBox="0 0 16 12" orient="auto" markerUnits="userSpaceOnUse"><path id="SvgjsPath1139" d="M0,2 L14,6 L0,11 L0,2" fill="#323232" stroke="#323232" stroke-width="2"></path></marker><marker id="SvgjsMarker1164" markerWidth="16" markerHeight="12" refX="16" refY="6" viewBox="0 0 16 12" orient="auto" markerUnits="userSpaceOnUse"><path id="SvgjsPath1165" d="M0,2 L14,6 L0,11 L0,2" fill="#323232" stroke="#323232" stroke-width="2"></path></marker><marker id="SvgjsMarker1168" markerWidth="16" markerHeight="12" refX="16" refY="6" viewBox="0 0 16 12" orient="auto" markerUnits="userSpaceOnUse"><path id="SvgjsPath1169" d="M0,2 L14,6 L0,11 L0,2" fill="#323232" stroke="#323232" stroke-width="2"></path></marker><marker id="SvgjsMarker1172" markerWidth="16" markerHeight="12" refX="16" refY="6" viewBox="0 0 16 12" orient="auto" markerUnits="userSpaceOnUse"><path id="SvgjsPath1173" d="M0,2 L14,6 L0,11 L0,2" fill="#323232" stroke="#323232" stroke-width="2"></path></marker><marker id="SvgjsMarker1182" markerWidth="16" markerHeight="12" refX="16" refY="6" viewBox="0 0 16 12" orient="auto" markerUnits="userSpaceOnUse"><path id="SvgjsPath1183" d="M0,2 L14,6 L0,11 L0,2" fill="#323232" stroke="#323232" stroke-width="2"></path></marker><marker id="SvgjsMarker1214" markerWidth="16" markerHeight="12" refX="16" refY="6" viewBox="0 0 16 12" orient="auto" markerUnits="userSpaceOnUse"><path id="SvgjsPath1215" d="M0,2 L14,6 L0,11 L0,2" fill="#323232" stroke="#323232" stroke-width="2"></path></marker><marker id="SvgjsMarker1264" markerWidth="16" markerHeight="12" refX="16" refY="6" viewBox="0 0 16 12" orient="auto" markerUnits="userSpaceOnUse"><path id="SvgjsPath1265" d="M0,2 L14,6 L0,11 L0,2" fill="#323232" stroke="#323232" stroke-width="2"></path></marker></defs><g id="SvgjsG1008" transform="translate(880,206)"><path id="SvgjsPath1009" d="M 0 0L 168 0L 168 48L 0 48Z" stroke="#323232" stroke-width="1" fill-opacity="1" fill="#fff3e7"></path><g id="SvgjsG1010"><text id="SvgjsText1011" font-family="微软雅黑" text-anchor="middle" font-size="13px" width="0" fill="#323232" font-weight="700" align="middle" anchor="middle" family="微软雅黑" size="13px" weight="700" font-style="" y="14.05" transform="rotate(0)"></text></g></g><g id="SvgjsG1012" transform="translate(542,60.75)"><path id="SvgjsPath1013" d="M 0 0L 215 0L 215 744L 0 744Z" stroke-dasharray="10,6" stroke="#323232" stroke-width="1" fill-opacity="1" fill="#ffebd2"></path><g id="SvgjsG1014"><text id="SvgjsText1015" font-family="微软雅黑" text-anchor="middle" font-size="13px" width="0" fill="#323232" font-weight="400" align="middle" anchor="middle" family="微软雅黑" size="13px" weight="400" font-style="" y="362.05" transform="rotate(0)"></text></g></g><g id="SvgjsG1016" transform="translate(569.5,60.75)"><path id="SvgjsPath1017" d="M 0 0L 160 0L 160 40L 0 40Z" stroke="none" fill="none"></path><g id="SvgjsG1018"><text id="SvgjsText1019" font-family="微软雅黑" text-anchor="middle" font-size="16px" width="97" fill="#323232" font-weight="700" align="middle" anchor="middle" family="微软雅黑" size="16px" weight="700" font-style="" y="7.6" transform="rotate(0)"><tspan id="SvgjsTspan1020" dy="20" x="80"><tspan id="SvgjsTspan1021" style="text-decoration:;">Redis Server</tspan></tspan></text></g></g><g id="SvgjsG1022" transform="translate(578,125.75)"><path id="SvgjsPath1023" d="M 0 0L 143 0L 143 69L 0 69Z" stroke="#323232" stroke-width="1" fill-opacity="1" fill="#e6f3fe"></path><g id="SvgjsG1024"><text id="SvgjsText1025" font-family="微软雅黑" text-anchor="middle" font-size="14px" width="0" fill="#323232" font-weight="700" align="middle" anchor="middle" family="微软雅黑" size="14px" weight="700" font-style="" y="23.4" transform="rotate(0)"></text></g></g><g id="SvgjsG1026" transform="translate(593.25,125.25)"><path id="SvgjsPath1027" d="M 0 0L 112.5 0L 112.5 70L 0 70Z" stroke="#323232" stroke-width="1" fill-opacity="1" fill="#e6f3fe"></path><g id="SvgjsG1028"><text id="SvgjsText1029" font-family="微软雅黑" text-anchor="middle" font-size="14px" width="0" fill="#323232" font-weight="700" align="middle" anchor="middle" family="微软雅黑" size="14px" weight="700" font-style="" y="23.9" transform="rotate(0)"></text></g></g><g id="SvgjsG1030" transform="translate(578,315.75)"><path id="SvgjsPath1031" d="M 0 0L 143 0L 143 69L 0 69Z" stroke="#323232" stroke-width="1" fill-opacity="1" fill="#e6f3fe"></path><g id="SvgjsG1032"><text id="SvgjsText1033" font-family="微软雅黑" text-anchor="middle" font-size="14px" width="0" fill="#323232" font-weight="700" align="middle" anchor="middle" family="微软雅黑" size="14px" weight="700" font-style="" y="23.4" transform="rotate(0)"></text></g></g><g id="SvgjsG1034" transform="translate(593.25,315.25)"><path id="SvgjsPath1035" d="M 0 0L 112.5 0L 112.5 70L 0 70Z" stroke="#323232" stroke-width="1" fill-opacity="1" fill="#e6f3fe"></path><g id="SvgjsG1036"><text id="SvgjsText1037" font-family="微软雅黑" text-anchor="middle" font-size="14px" width="0" fill="#323232" font-weight="700" align="middle" anchor="middle" family="微软雅黑" size="14px" weight="700" font-style="" y="23.9" transform="rotate(0)"></text></g></g><g id="SvgjsG1038" transform="translate(578,500.75)"><path id="SvgjsPath1039" d="M 0 0L 143 0L 143 69L 0 69Z" stroke="#323232" stroke-width="1" fill-opacity="1" fill="#e6f3fe"></path><g id="SvgjsG1040"><text id="SvgjsText1041" font-family="微软雅黑" text-anchor="middle" font-size="14px" width="0" fill="#323232" font-weight="700" align="middle" anchor="middle" family="微软雅黑" size="14px" weight="700" font-style="" y="23.4" transform="rotate(0)"></text></g></g><g id="SvgjsG1042" transform="translate(593.25,500.25)"><path id="SvgjsPath1043" d="M 0 0L 112.5 0L 112.5 70L 0 70Z" stroke="#323232" stroke-width="1" fill-opacity="1" fill="#e6f3fe"></path><g id="SvgjsG1044"><text id="SvgjsText1045" font-family="微软雅黑" text-anchor="middle" font-size="14px" width="0" fill="#323232" font-weight="700" align="middle" anchor="middle" family="微软雅黑" size="14px" weight="700" font-style="" y="23.9" transform="rotate(0)"></text></g></g><g id="SvgjsG1046" transform="translate(634.75,641.75)"><path id="SvgjsPath1047" d="M 0 0L 29.5 0L 29.5 38L 0 38Z" stroke="none" fill="none"></path><g id="SvgjsG1048"><text id="SvgjsText1049" font-family="微软雅黑" text-anchor="middle" font-size="43px" width="12" fill="#323232" font-weight="700" align="middle" anchor="middle" family="微软雅黑" size="43px" weight="700" font-style="" y="-14.45" transform="rotate(0)"><tspan id="SvgjsTspan1050" dy="53" x="15"><tspan id="SvgjsTspan1051" style="text-decoration:;">.</tspan></tspan></text></g></g><g id="SvgjsG1052" transform="translate(634.75,666.125)"><path id="SvgjsPath1053" d="M 0 0L 29.5 0L 29.5 38L 0 38Z" stroke="none" fill="none"></path><g id="SvgjsG1054"><text id="SvgjsText1055" font-family="微软雅黑" text-anchor="middle" font-size="43px" width="12" fill="#323232" font-weight="700" align="middle" anchor="middle" family="微软雅黑" size="43px" weight="700" font-style="" y="-14.45" transform="rotate(0)"><tspan id="SvgjsTspan1056" dy="53" x="15"><tspan id="SvgjsTspan1057" style="text-decoration:;">.</tspan></tspan></text></g></g><g id="SvgjsG1058" transform="translate(634.75,688.125)"><path id="SvgjsPath1059" d="M 0 0L 29.5 0L 29.5 38L 0 38Z" stroke="none" fill="none"></path><g id="SvgjsG1060"><text id="SvgjsText1061" font-family="微软雅黑" text-anchor="middle" font-size="43px" width="12" fill="#323232" font-weight="700" align="middle" anchor="middle" family="微软雅黑" size="43px" weight="700" font-style="" y="-14.45" transform="rotate(0)"><tspan id="SvgjsTspan1062" dy="53" x="15"><tspan id="SvgjsTspan1063" style="text-decoration:;">.</tspan></tspan></text></g></g><g id="SvgjsG1064" transform="translate(614,135.25)"><path id="SvgjsPath1065" d="M 0 0L 71 0L 71 28.5L 0 28.5Z" stroke="none" fill="none"></path><g id="SvgjsG1066"><text id="SvgjsText1067" font-family="微软雅黑" text-anchor="middle" font-size="13px" width="51" fill="#323232" font-weight="700" align="middle" anchor="middle" family="微软雅黑" size="13px" weight="700" font-style="" y="4.3" transform="rotate(0)"><tspan id="SvgjsTspan1068" dy="16" x="35.5"><tspan id="SvgjsTspan1069" style="text-decoration:;">Webster</tspan></tspan></text></g></g><g id="SvgjsG1070" transform="translate(597,156.25)"><path id="SvgjsPath1071" d="M 0 0L 105 0L 105 29.5L 0 29.5Z" stroke="none" fill="none"></path><g id="SvgjsG1072"><text id="SvgjsText1073" font-family="微软雅黑" text-anchor="middle" font-size="13px" width="83" fill="#323232" font-weight="700" align="middle" anchor="middle" family="微软雅黑" size="13px" weight="700" font-style="" y="4.8" transform="rotate(0)"><tspan id="SvgjsTspan1074" dy="16" x="52.5"><tspan id="SvgjsTspan1075" style="text-decoration:;">Task Queue 1</tspan></tspan></text></g></g><g id="SvgjsG1076" transform="translate(614,327.25)"><path id="SvgjsPath1077" d="M 0 0L 71 0L 71 28.5L 0 28.5Z" stroke="none" fill="none"></path><g id="SvgjsG1078"><text id="SvgjsText1079" font-family="微软雅黑" text-anchor="middle" font-size="13px" width="51" fill="#323232" font-weight="700" align="middle" anchor="middle" family="微软雅黑" size="13px" weight="700" font-style="" y="4.3" transform="rotate(0)"><tspan id="SvgjsTspan1080" dy="16" x="35.5"><tspan id="SvgjsTspan1081" style="text-decoration:;">Webster</tspan></tspan></text></g></g><g id="SvgjsG1082" transform="translate(597,348.25)"><path id="SvgjsPath1083" d="M 0 0L 105 0L 105 29.5L 0 29.5Z" stroke="none" fill="none"></path><g id="SvgjsG1084"><text id="SvgjsText1085" font-family="微软雅黑" text-anchor="middle" font-size="13px" width="86" fill="#323232" font-weight="700" align="middle" anchor="middle" family="微软雅黑" size="13px" weight="700" font-style="" y="4.8" transform="rotate(0)"><tspan id="SvgjsTspan1086" dy="16" x="52.5"><tspan id="SvgjsTspan1087" style="text-decoration:;">Task Queue 2</tspan></tspan></text></g></g><g id="SvgjsG1088" transform="translate(614,512.25)"><path id="SvgjsPath1089" d="M 0 0L 71 0L 71 28.5L 0 28.5Z" stroke="none" fill="none"></path><g id="SvgjsG1090"><text id="SvgjsText1091" font-family="微软雅黑" text-anchor="middle" font-size="13px" width="51" fill="#323232" font-weight="700" align="middle" anchor="middle" family="微软雅黑" size="13px" weight="700" font-style="" y="4.3" transform="rotate(0)"><tspan id="SvgjsTspan1092" dy="16" x="35.5"><tspan id="SvgjsTspan1093" style="text-decoration:;">Webster</tspan></tspan></text></g></g><g id="SvgjsG1094" transform="translate(597,533.25)"><path id="SvgjsPath1095" d="M 0 0L 105 0L 105 29.5L 0 29.5Z" stroke="none" fill="none"></path><g id="SvgjsG1096"><text id="SvgjsText1097" font-family="微软雅黑" text-anchor="middle" font-size="13px" width="86" fill="#323232" font-weight="700" align="middle" anchor="middle" family="微软雅黑" size="13px" weight="700" font-style="" y="4.8" transform="rotate(0)"><tspan id="SvgjsTspan1098" dy="16" x="52.5"><tspan id="SvgjsTspan1099" style="text-decoration:;">Task Queue 3</tspan></tspan></text></g></g><g id="SvgjsG1100"><path id="SvgjsPath1101" d="M399.25 64L488.625 64L488.625 160.25L578 160.25" stroke="#323232" stroke-width="2" fill="none" marker-end="url(#SvgjsMarker1102)"></path></g><g id="SvgjsG1104"><path id="SvgjsPath1105" d="M417 76.75L497.5 76.75L497.5 174.75L578 174.75" stroke="#323232" stroke-width="2" fill="none" marker-end="url(#SvgjsMarker1106)"></path></g><g id="SvgjsG1108" transform="translate(215.25,25)"><path id="SvgjsPath1109" d="M 0 0L 168 0L 168 48L 0 48Z" stroke="#323232" stroke-width="1" fill-opacity="1" fill="#fff3e7"></path><g id="SvgjsG1110"><text id="SvgjsText1111" font-family="微软雅黑" text-anchor="middle" font-size="13px" width="0" fill="#323232" font-weight="400" align="middle" anchor="middle" family="微软雅黑" size="13px" weight="400" font-style="" y="14.05" transform="rotate(0)"></text></g></g><g id="SvgjsG1112"><path id="SvgjsPath1113" d="M383.25 49L480.625 49L480.625 144.75L578 144.75" stroke="#323232" stroke-width="2" fill="none" marker-end="url(#SvgjsMarker1114)"></path></g><g id="SvgjsG1116" transform="translate(231.25,40)"><path id="SvgjsPath1117" d="M 0 0L 168 0L 168 48L 0 48Z" stroke="#323232" stroke-width="1" fill-opacity="1" fill="#fff3e7"></path><g id="SvgjsG1118"><text id="SvgjsText1119" font-family="微软雅黑" text-anchor="middle" font-size="13px" width="0" fill="#323232" font-weight="400" align="middle" anchor="middle" family="微软雅黑" size="13px" weight="400" font-style="" y="14.05" transform="rotate(0)"></text></g></g><g id="SvgjsG1120" transform="translate(249,52.75)"><path id="SvgjsPath1121" d="M 0 0L 168 0L 168 48L 0 48Z" stroke="#323232" stroke-width="1" fill-opacity="1" fill="#fff3e7"></path><g id="SvgjsG1122"><text id="SvgjsText1123" font-family="微软雅黑" text-anchor="middle" font-size="13px" width="121" fill="#323232" font-weight="700" align="middle" anchor="middle" family="微软雅黑" size="13px" weight="700" font-style="" y="14.05" transform="rotate(0)"><tspan id="SvgjsTspan1124" dy="16" x="84"><tspan id="SvgjsTspan1125" style="text-decoration:;">Webster Producer 1</tspan></tspan></text></g></g><g id="SvgjsG1126" transform="translate(866,218.5)"><path id="SvgjsPath1127" d="M 0 0L 168 0L 168 48L 0 48Z" stroke="#323232" stroke-width="1" fill-opacity="1" fill="#fff3e7"></path><g id="SvgjsG1128"><text id="SvgjsText1129" font-family="微软雅黑" text-anchor="middle" font-size="13px" width="128" fill="#323232" font-weight="700" align="middle" anchor="middle" family="微软雅黑" size="13px" weight="700" font-style="" y="14.05" transform="rotate(0)"><tspan id="SvgjsTspan1130" dy="16" x="84"><tspan id="SvgjsTspan1131" style="text-decoration:;">Webster Consumer 1</tspan></tspan></text></g></g><g id="SvgjsG1132"><path id="SvgjsPath1133" d="M721 160.25L950 160.25L950 218.5" stroke="#323232" stroke-width="2" fill="none" marker-end="url(#SvgjsMarker1134)"></path></g><g id="SvgjsG1136"><path id="SvgjsPath1137" d="M721 146.75L964 146.75L964 206" stroke="#323232" stroke-width="2" fill="none" marker-end="url(#SvgjsMarker1138)"></path></g><g id="SvgjsG1140" transform="translate(246,247.75)"><path id="SvgjsPath1141" d="M 0 0L 168 0L 168 48L 0 48Z" stroke="#323232" stroke-width="1" fill-opacity="1" fill="#fff3e7"></path><g id="SvgjsG1142"><text id="SvgjsText1143" font-family="微软雅黑" text-anchor="middle" font-size="13px" width="124" fill="#323232" font-weight="700" align="middle" anchor="middle" family="微软雅黑" size="13px" weight="700" font-style="" y="14.05" transform="rotate(0)"><tspan id="SvgjsTspan1144" dy="16" x="84"><tspan id="SvgjsTspan1145" style="text-decoration:;">Webster Producer 2</tspan></tspan></text></g></g><g id="SvgjsG1146" transform="translate(862,411.5)"><path id="SvgjsPath1147" d="M 0 0L 204 0L 204 129.25L 0 129.25Z" stroke="#323232" stroke-width="1" fill-opacity="1" fill="#fff3e7"></path><g id="SvgjsG1148"><text id="SvgjsText1149" font-family="微软雅黑" text-anchor="middle" font-size="13px" width="0" fill="#323232" font-weight="700" align="middle" anchor="middle" family="微软雅黑" size="13px" weight="700" font-style="" y="54.675" transform="rotate(0)"></text></g></g><g id="SvgjsG1150" transform="translate(884,419.75)"><path id="SvgjsPath1151" d="M 0 0L 160 0L 160 40L 0 40Z" stroke="none" fill="none"></path><g id="SvgjsG1152"><text id="SvgjsText1153" font-family="微软雅黑" text-anchor="middle" font-size="13px" width="131" fill="#323232" font-weight="700" align="middle" anchor="middle" family="微软雅黑" size="13px" weight="700" font-style="" y="10.05" transform="rotate(0)"><tspan id="SvgjsTspan1154" dy="16" x="80"><tspan id="SvgjsTspan1155" style="text-decoration:;">Webster Consumer 2</tspan></tspan></text></g></g><g id="SvgjsG1156" transform="translate(879,464.25)"><path id="SvgjsPath1157" d="M 0 0L 170 0L 170 57.5L 0 57.5Z" stroke="#323232" stroke-width="1" fill-opacity="1" fill="#fff3e7"></path><g id="SvgjsG1158"><text id="SvgjsText1159" font-family="微软雅黑" text-anchor="middle" font-size="13px" width="124" fill="#323232" font-weight="700" align="middle" anchor="middle" family="微软雅黑" size="13px" weight="700" font-style="" y="18.8" transform="rotate(0)"><tspan id="SvgjsTspan1160" dy="16" x="85"><tspan id="SvgjsTspan1161" style="text-decoration:;">Webster Producer 3</tspan></tspan></text></g></g><g id="SvgjsG1162"><path id="SvgjsPath1163" d="M414 271.75L496 271.75L496 350.25L578 350.25" stroke="#323232" stroke-width="2" fill="none" marker-end="url(#SvgjsMarker1164)"></path></g><g id="SvgjsG1166"><path id="SvgjsPath1167" d="M721 350.25L964 350.25L964 411.5" stroke="#323232" stroke-width="2" fill="none" marker-end="url(#SvgjsMarker1168)"></path></g><g id="SvgjsG1170"><path id="SvgjsPath1171" d="M879 493L800 493L800 535.25L721 535.25" stroke="#323232" stroke-width="2" fill="none" marker-end="url(#SvgjsMarker1172)"></path></g><g id="SvgjsG1174" transform="translate(264,593.75)"><path id="SvgjsPath1175" d="M 0 0L 168 0L 168 48L 0 48Z" stroke="#323232" stroke-width="1" fill-opacity="1" fill="#fff3e7"></path><g id="SvgjsG1176"><text id="SvgjsText1177" font-family="微软雅黑" text-anchor="middle" font-size="13px" width="131" fill="#323232" font-weight="700" align="middle" anchor="middle" family="微软雅黑" size="13px" weight="700" font-style="" y="14.05" transform="rotate(0)"><tspan id="SvgjsTspan1178" dy="16" x="84"><tspan id="SvgjsTspan1179" style="text-decoration:;">Webster Consumer 3</tspan></tspan></text></g></g><g id="SvgjsG1180"><path id="SvgjsPath1181" d="M578 535.25L348 535.25L348 593.75" stroke="#323232" stroke-width="2" fill="none" marker-end="url(#SvgjsMarker1182)"></path></g><g id="SvgjsG1184" transform="translate(25,214.125)"><path id="SvgjsPath1185" d="M 0 4Q 0 0 4 0L 148 0Q 152 0 152 4L 152 111.25Q 152 115.25 148 115.25L 4 115.25Q 0 115.25 0 111.25Z" stroke="#323232" stroke-width="2" fill-opacity="1" fill="#ffffff"></path><g id="SvgjsG1186"><text id="SvgjsText1187" font-family="微软雅黑" text-anchor="middle" font-size="13px" width="0" fill="#323232" font-weight="400" align="middle" anchor="middle" family="微软雅黑" size="13px" weight="400" font-style="" y="47.675" transform="rotate(0)"></text></g></g><g id="SvgjsG1188" transform="translate(25,214.125)"><path id="SvgjsPath1189" d="M 0 0L 97 0L 97 24.25L 0 24.25Z" stroke="none" fill="none"></path><g id="SvgjsG1190"><text id="SvgjsText1191" font-family="微软雅黑" text-anchor="middle" font-size="13px" width="81" fill="#323232" font-weight="700" align="middle" anchor="middle" family="微软雅黑" size="13px" weight="700" font-style="" y="2.175" transform="rotate(0)"><tspan id="SvgjsTspan1192" dy="16" x="48.5"><tspan id="SvgjsTspan1193" style="text-decoration:;">Crawler Task</tspan></tspan></text></g></g><g id="SvgjsG1194" transform="translate(40,244.125)"><path id="SvgjsPath1195" d="M 0 0L 122 0L 122 24.25L 0 24.25Z" stroke="none" fill="none"></path><g id="SvgjsG1196"><text id="SvgjsText1197" font-family="微软雅黑" text-anchor="middle" font-size="13px" width="64" fill="#323232" font-weight="400" align="middle" anchor="middle" family="微软雅黑" size="13px" weight="400" font-style="" y="2.175" transform="rotate(0)"><tspan id="SvgjsTspan1198" dy="16" x="61"><tspan id="SvgjsTspan1199" style="text-decoration:;">HTTP URL</tspan></tspan></text></g></g><g id="SvgjsG1200" transform="translate(40,268.375)"><path id="SvgjsPath1201" d="M 0 0L 122 0L 122 24.25L 0 24.25Z" stroke="none" fill="none"></path><g id="SvgjsG1202"><text id="SvgjsText1203" font-family="微软雅黑" text-anchor="middle" font-size="13px" width="92" fill="#323232" font-weight="400" align="middle" anchor="middle" family="微软雅黑" size="13px" weight="400" font-style="" y="2.175" transform="rotate(0)"><tspan id="SvgjsTspan1204" dy="16" x="61"><tspan id="SvgjsTspan1205" style="text-decoration:;">Browser Action</tspan></tspan></text></g></g><g id="SvgjsG1206" transform="translate(40,296.375)"><path id="SvgjsPath1207" d="M 0 0L 122 0L 122 24.25L 0 24.25Z" stroke="none" fill="none"></path><g id="SvgjsG1208"><text id="SvgjsText1209" font-family="微软雅黑" text-anchor="middle" font-size="13px" width="78" fill="#323232" font-weight="400" align="middle" anchor="middle" family="微软雅黑" size="13px" weight="400" font-style="" y="2.175" transform="rotate(0)"><tspan id="SvgjsTspan1210" dy="16" x="61"><tspan id="SvgjsTspan1211" style="text-decoration:;">Other Infos...</tspan></tspan></text></g></g><g id="SvgjsG1212"><path id="SvgjsPath1213" d="M177 271.75L211.5 271.75L211.5 271.75L246 271.75" stroke-dasharray="8,5" stroke="#323232" stroke-width="2" fill="none" marker-end="url(#SvgjsMarker1214)"></path></g><g id="SvgjsG1216" transform="translate(224,726.125)"><path id="SvgjsPath1217" d="M 0 4Q 0 0 4 0L 244 0Q 248 0 248 4L 248 207.625Q 248 211.625 244 211.625L 4 211.625Q 0 211.625 0 207.625Z" stroke="#323232" stroke-width="2" fill-opacity="1" fill="#ffffff"></path><g id="SvgjsG1218"><text id="SvgjsText1219" font-family="微软雅黑" text-anchor="middle" font-size="13px" width="0" fill="#323232" font-weight="400" align="middle" anchor="middle" family="微软雅黑" size="13px" weight="400" font-style="" y="95.8625" transform="rotate(0)"></text></g></g><g id="SvgjsG1220" transform="translate(224,726.125)"><path id="SvgjsPath1221" d="M 0 0L 113 0L 113 23.625L 0 23.625Z" stroke="none" fill="none"></path><g id="SvgjsG1222"><text id="SvgjsText1223" font-family="微软雅黑" text-anchor="middle" font-size="13px" width="97" fill="#323232" font-weight="700" align="middle" anchor="middle" family="微软雅黑" size="13px" weight="700" font-style="" y="1.8625" transform="rotate(0)"><tspan id="SvgjsTspan1224" dy="16" x="56.5"><tspan id="SvgjsTspan1225" style="text-decoration:;">Crawling Result</tspan></tspan></text></g></g><g id="SvgjsG1226" transform="translate(281,749.75)"><path id="SvgjsPath1227" d="M 0 0L 140 0L 140 24L 0 24Z" stroke="none" fill="none"></path><g id="SvgjsG1228"><text id="SvgjsText1229" font-family="微软雅黑" text-anchor="middle" font-size="13px" width="103" fill="#323232" font-weight="400" align="middle" anchor="middle" family="微软雅黑" size="13px" weight="400" font-style="" y="2.05" transform="rotate(0)"><tspan id="SvgjsTspan1230" dy="16" x="70"><tspan id="SvgjsTspan1231" style="text-decoration:;">Get HTML String</tspan></tspan></text></g></g><g id="SvgjsG1232" transform="translate(278,770.75)"><path id="SvgjsPath1233" d="M 0 0L 140 0L 140 24L 0 24Z" stroke="none" fill="none"></path><g id="SvgjsG1234"><text id="SvgjsText1235" font-family="微软雅黑" text-anchor="middle" font-size="13px" width="84" fill="#323232" font-weight="400" align="middle" anchor="middle" family="微软雅黑" size="13px" weight="400" font-style="" y="2.05" transform="rotate(0)"><tspan id="SvgjsTspan1236" dy="16" x="70"><tspan id="SvgjsTspan1237" style="text-decoration:;">Get DOM Info</tspan></tspan></text></g></g><g id="SvgjsG1238" transform="translate(224,794.75)"><path id="SvgjsPath1239" d="M 0 0L 191 0L 191 26L 0 26Z" stroke="none" fill="none"></path><g id="SvgjsG1240"><text id="SvgjsText1241" font-family="微软雅黑" text-anchor="middle" font-size="13px" width="180" fill="#323232" font-weight="700" align="middle" anchor="middle" family="微软雅黑" size="13px" weight="700" font-style="" y="3.05" transform="rotate(0)"><tspan id="SvgjsTspan1242" dy="16" x="95.5"><tspan id="SvgjsTspan1243" style="text-decoration:;">Then Do Whatever You Want</tspan></tspan></text></g></g><g id="SvgjsG1244" transform="translate(278,827.75)"><path id="SvgjsPath1245" d="M 0 0L 140 0L 140 24L 0 24Z" stroke="none" fill="none"></path><g id="SvgjsG1246"><text id="SvgjsText1247" font-family="微软雅黑" text-anchor="middle" font-size="13px" width="105" fill="#323232" font-weight="400" align="middle" anchor="middle" family="微软雅黑" size="13px" weight="400" font-style="" y="2.05" transform="rotate(0)"><tspan id="SvgjsTspan1248" dy="16" x="70"><tspan id="SvgjsTspan1249" style="text-decoration:;">Write Database ?</tspan></tspan></text></g></g><g id="SvgjsG1250" transform="translate(266.25,851.75)"><path id="SvgjsPath1251" d="M 0 0L 163.5 0L 163.5 21L 0 21Z" stroke="none" fill="none"></path><g id="SvgjsG1252"><text id="SvgjsText1253" font-family="微软雅黑" text-anchor="middle" font-size="13px" width="158" fill="#323232" font-weight="400" align="middle" anchor="middle" family="微软雅黑" size="13px" weight="400" font-style="" y="0.55" transform="rotate(0)"><tspan id="SvgjsTspan1254" dy="16" x="82"><tspan id="SvgjsTspan1255" style="text-decoration:;">Other Webster Producer ?</tspan></tspan></text></g></g><g id="SvgjsG1256" transform="translate(278,872.75)"><path id="SvgjsPath1257" d="M 0 0L 140 0L 140 24L 0 24Z" stroke="none" fill="none"></path><g id="SvgjsG1258"><text id="SvgjsText1259" font-family="微软雅黑" text-anchor="middle" font-size="22px" width="17" fill="#323232" font-weight="400" align="middle" anchor="middle" family="微软雅黑" size="22px" weight="400" font-style="" y="-5.3" transform="rotate(0)"><tspan id="SvgjsTspan1260" dy="27" x="70"><tspan id="SvgjsTspan1261" style="text-decoration:;">...</tspan></tspan></text></g></g><g id="SvgjsG1262"><path id="SvgjsPath1263" d="M348 641.75L348 683.9375L348 683.9375L348 726.125" stroke="#323232" stroke-width="2" fill="none" marker-end="url(#SvgjsMarker1264)"></path></g><g id="SvgjsG1266" transform="translate(579.5,623.75)"><path id="SvgjsPath1267" d="M 0 0L 140 0L 140 24L 0 24Z" stroke="none" fill="none"></path><g id="SvgjsG1268"><text id="SvgjsText1269" font-family="微软雅黑" text-anchor="middle" font-size="17px" width="103" fill="#323232" font-weight="700" align="middle" anchor="middle" family="微软雅黑" size="17px" weight="700" font-style="" y="-1.0499999999999998" transform="rotate(0)"><tspan id="SvgjsTspan1270" dy="21" x="70"><tspan id="SvgjsTspan1271" style="text-decoration:;">Other Queue</tspan></tspan></text></g></g></svg>